<svg xmlns="http://www.w3.org/2000/svg"><style>:root svg:not(:target){display:none}</style><svg viewBox="0 0 27 35" fill="none" id="html-academy"><path d="M13.6426 0.515754L13.5 0.5L0 1.90733V26.5129L13.5 34.5L27 26.5129V1.90733L13.6426 0.515754ZM25.2344 25.5151L13.5 32.4573L1.76561 25.5151V15.4293L13.4507 22.3451L13.4701 23.5984L5.45351 18.8548L5.44295 20.0801L13.4894 24.8885L13.5088 26.175L5.46408 21.4174L5.45351 22.6427L13.5 27.4511L21.6239 22.6182V21.3929V17.409L25.2432 15.2595L25.2344 25.5151ZM25.2344 13.9519L22.0147 15.8319L20.5325 16.7071L13.4666 12.5201L13.456 13.7454L19.4957 17.318L19.4429 17.3495L19.3126 17.4247L18.4536 17.9166L13.4666 14.9689L13.456 16.1942L17.3921 18.5222L16.4591 19.1314L16.438 19.1436L13.4666 17.402L13.456 18.6273L15.4029 19.7615L13.4155 20.9483L1.7973 14.0762L13.4349 7.11831L25.2344 13.9519ZM25.2344 12.7266L13.4401 5.81075L1.76561 12.7196V3.4897L13.5 2.26442L25.2344 3.4897V12.7266Z" fill="#666666"></path></svg><svg viewBox="0 0 80 83" fill="none" id="icon-gift"><path d="M65.6571 36.0148H14.3908C12.5914 36.0148 11.1277 34.544 11.1277 32.736V22.9127C11.1277 21.1046 12.5914 19.6333 14.3908 19.6333H65.6564C67.4552 19.6333 68.9183 21.1046 68.9183 22.9127V32.7366C68.9189 34.544 67.4558 36.0148 65.6571 36.0148ZM14.3908 22.1463C13.9771 22.1463 13.6277 22.4975 13.6277 22.9127V32.7366C13.6277 33.1588 13.9702 33.5024 14.3908 33.5024H65.6564C66.0764 33.5024 66.4183 33.1588 66.4183 32.7366V22.9127C66.4183 22.4968 66.0689 22.1463 65.6564 22.1463H14.3908Z" fill="white"></path><path d="M58.5075 69.6672H21.5375C18.0737 69.6672 15.2556 66.8351 15.2556 63.3527V34.7582C15.2556 34.0646 15.8156 33.5017 16.5056 33.5017C17.1956 33.5017 17.7556 34.0646 17.7556 34.7582V63.3527C17.7556 65.4492 19.4525 67.1542 21.5375 67.1542H58.5075C60.5919 67.1542 62.2881 65.4492 62.2881 63.3527V34.7582C62.2881 34.0646 62.8481 33.5017 63.5381 33.5017C64.2281 33.5017 64.7881 34.0646 64.7881 34.7582V63.3527C64.7881 66.8351 61.9706 69.6672 58.5075 69.6672Z" fill="white"></path><path d="M40.0232 69.6672C39.3332 69.6672 38.7732 69.1049 38.7732 68.4107V34.7582C38.7732 34.0646 39.3332 33.5017 40.0232 33.5017C40.7132 33.5017 41.2732 34.0646 41.2732 34.7582V68.4101C41.2732 69.1049 40.7138 69.6672 40.0232 69.6672Z" fill="white"></path><path d="M24.4218 22.1418C20.5093 20.0108 19.0493 15.0778 21.1674 11.1444C23.2843 7.21283 28.1911 5.74463 32.1055 7.87186C38.0686 11.1186 41.2886 20.1766 41.4224 20.5605L39.0643 21.3942C39.0343 21.3087 36.0261 12.8645 30.9161 10.082C28.213 8.61319 24.8268 9.62718 23.3661 12.3406C21.9043 15.0565 22.9118 18.4615 25.6136 19.9323L24.4218 22.1418Z" fill="white"></path><path d="M55.6218 22.1418L54.4318 19.9316C55.7411 19.2185 56.6955 18.0368 57.1205 16.6038C57.5449 15.1701 57.388 13.6561 56.6786 12.3412C55.9711 11.025 54.7961 10.0663 53.3705 9.6397C51.9443 9.21313 50.4393 9.37019 49.1305 10.082C44.0205 12.8639 41.0124 21.3081 40.9824 21.3935L38.6243 20.5598C38.758 20.176 41.9774 11.118 47.9405 7.87183C49.8355 6.84025 52.0186 6.61282 54.0836 7.23102C56.1505 7.84858 57.8524 9.23889 58.878 11.1443C59.9049 13.0492 60.1318 15.2424 59.5168 17.32C58.9011 19.397 57.518 21.1089 55.6218 22.1418Z" fill="white"></path><path d="M63.5381 52.8407H16.5056C15.8156 52.8407 15.2556 52.278 15.2556 51.5847C15.2556 50.8913 15.8156 50.3286 16.5056 50.3286H63.5381C64.2281 50.3286 64.7881 50.8913 64.7881 51.5847C64.7881 52.278 64.2287 52.8407 63.5381 52.8407Z" fill="white"></path></svg><svg viewBox="0 0 134 56" fill="none" id="icon-pro"><path d="M123.118 5.75685C124.273 3.91994 125.807 2.35146 127.618 1.15685C128.618 0.456854 129.218 0.456854 129.818 1.75685C130.618 3.65685 131.318 5.65685 130.718 7.75685C130.609 8.11302 130.588 8.49045 130.658 8.85639C130.728 9.22234 130.886 9.56575 131.118 9.85685C131.718 10.6569 132.218 11.4569 132.718 12.1569C133.399 13.0206 133.84 14.0482 133.998 15.1364C134.156 16.2246 134.025 17.3352 133.618 18.3569C133.251 19.3487 133.182 20.4261 133.418 21.4569C133.618 22.4469 133.618 23.4668 133.418 24.4569C133.337 25.1983 133.037 25.8987 132.556 26.4688C132.075 27.0388 131.435 27.4524 130.718 27.6569C129.439 27.9002 128.298 28.6137 127.518 29.6569C127.424 29.8105 127.291 29.9372 127.134 30.0247C126.976 30.1123 126.799 30.1578 126.618 30.1569C125.418 30.3569 122.418 27.6569 122.418 26.4569V25.8569C122.518 22.2569 122.318 21.9569 119.018 20.4569C118.328 20.2133 117.709 19.8007 117.218 19.2569C116.618 18.4569 115.818 18.5569 114.918 18.8569C114.018 19.1569 113.518 19.7569 113.618 20.7569C113.92 23.1777 114.02 25.6194 113.918 28.0569C113.925 28.335 113.993 28.6083 114.118 28.8569C117.218 33.3569 118.418 38.6569 119.918 43.7569C121.118 47.6569 123.318 49.7569 127.318 50.0569C127.958 50.1079 128.594 50.2082 129.218 50.3569C130.04 50.4889 130.803 50.8644 131.41 51.4349C132.016 52.0054 132.437 52.7445 132.618 53.5569C133.318 55.6569 132.918 56.1569 130.818 56.1569H124.318C123.477 56.1994 122.652 55.9124 122.018 55.3569C121.006 54.5027 119.856 53.8265 118.618 53.3569C117.249 52.8516 116.065 51.9455 115.218 50.7569C114.047 49.1203 112.706 47.612 111.218 46.2569C108.418 43.3569 105.418 40.5569 102.818 37.5569C100.839 35.5127 99.6973 32.8012 99.6182 29.9569C99.6182 29.0569 99.4182 28.6569 98.4182 29.0569C98.1188 29.2468 97.7728 29.3506 97.4182 29.3569C94.6182 29.3569 93.2182 31.0569 92.2182 33.5569C91.3182 35.6569 90.1182 37.6569 89.0182 39.7569C88.3945 41.0714 88.0538 42.5023 88.0182 43.9569C88.0182 46.3569 88.6182 47.1569 90.8182 47.9569C92.2182 48.4569 93.5182 48.9569 94.2182 50.3569C95.0182 51.9569 94.8182 52.3569 93.1182 52.4569H86.3182C85.9262 52.4957 85.5319 52.4104 85.191 52.213C84.8501 52.0156 84.5798 51.7162 84.4182 51.3569L82.6182 48.3569C82.0876 47.5741 81.7479 46.6779 81.6264 45.7401C81.5048 44.8023 81.6048 43.849 81.9182 42.9569C82.351 41.2204 82.3852 39.4084 82.0182 37.6569C81.7662 36.437 81.7879 35.1764 82.0819 33.9659C82.3758 32.7554 82.9347 31.6252 83.7182 30.6569C84.3182 29.9569 84.3182 29.6569 83.3182 29.4569C79.2291 28.5882 75.2649 27.2108 71.5182 25.3569C71.4917 25.3569 71.4663 25.3463 71.4475 25.3276C71.4288 25.3088 71.4182 25.2834 71.4182 25.2569C68.2182 24.0569 67.6182 24.2569 66.7182 27.5569C65.9182 30.3569 65.1182 33.1569 64.5182 36.0569C63.8182 39.2569 64.6182 42.2569 65.6182 45.2569C66.0182 46.4569 67.2182 46.3569 68.1182 46.6569C70.1182 47.2569 71.8182 48.0569 72.6182 50.1569C73.3182 51.7569 73.2182 51.9569 71.5182 51.9569C69.8182 51.9569 68.1182 51.8569 66.3182 51.9569C64.7993 51.9844 63.3169 51.4902 62.1182 50.5569C57.3182 47.3569 55.9182 42.4569 55.5182 37.1569C55.3182 33.8569 53.5182 31.2569 51.4182 28.7569C51.0182 28.2569 50.6182 28.0569 50.0182 28.4569C47.8717 29.6404 45.6307 30.6439 43.3182 31.4569C38.4925 33.1608 34.2579 36.2153 31.1182 40.2569C29.9459 41.7318 29.1866 43.4919 28.9182 45.3569C28.6182 47.1569 29.1182 47.9569 30.9182 48.4569C32.7182 48.9569 33.6182 49.9569 33.8182 51.8569C33.9182 52.6569 33.6182 53.0569 32.8182 53.0569H24.7182C24.4531 53.0381 24.1965 52.9555 23.9702 52.8162C23.7438 52.6769 23.5545 52.485 23.4182 52.2569C22.1621 50.7016 21.4899 48.7558 21.5182 46.7569C21.4658 43.3018 21.7673 39.8505 22.4182 36.4569C22.5517 35.4405 22.9311 34.4721 23.5236 33.6357C24.1161 32.7992 24.9038 32.12 25.8182 31.6569C31.7182 28.8569 34.8182 23.5569 37.6182 18.0569C38.2182 16.9569 37.7182 16.7569 36.7182 16.8569C33.9196 17.2454 31.2679 18.3474 29.0182 20.0569C26.0724 22.2057 23.2975 24.5795 20.7182 27.1569C17.9679 29.9505 14.3209 31.6855 10.4182 32.0569C3.11823 32.4569 -0.28177 28.3569 0.0182299 21.7569C0.0852924 19.5065 0.933877 17.3496 2.41823 15.6569C2.93425 14.9879 3.63796 14.4878 4.4395 14.2207C5.24103 13.9535 6.10401 13.9313 6.91823 14.1569C8.41823 14.5569 8.81823 15.3569 8.21823 16.8569C7.91823 17.4569 7.51823 17.9569 7.21823 18.5569C6.78683 19.1698 6.44975 19.844 6.21823 20.5569C5.11823 23.5569 6.61823 25.6569 9.71823 25.9569C13.0182 26.2569 15.7182 24.8569 18.2182 22.8569C21.2302 20.4451 23.9189 17.6555 26.2182 14.5569C27.9375 12.2943 30.1023 10.4081 32.5791 9.01498C35.0558 7.62182 37.7918 6.75118 40.6182 6.45685C42.9182 6.15685 44.9182 5.15685 47.1182 4.55685C51.2327 3.30246 55.5172 2.69521 59.8182 2.75685C61.8103 2.83982 63.7948 2.46345 65.6182 1.65685C70.5182 -0.343146 75.6182 -0.343146 80.7182 0.656854C84.7182 1.45685 88.7182 2.45685 92.6182 3.45685C94.9392 3.88933 97.3257 3.82114 99.6182 3.25685C104.007 2.14439 108.496 1.47438 113.018 1.25685C115.981 1.11272 118.933 1.69639 121.618 2.95685C123.618 3.85685 123.618 3.85685 123.118 5.75685Z" fill="black"></path></svg><svg viewBox="0 0 70 97" fill="none" id="icon-slim"><path d="M54.84 0H54.46C53.818 0.362938 53.307 0.919413 53 1.59C52.4377 2.67211 52.0047 3.81665 51.71 5C51.6468 5.35582 51.4671 5.68054 51.1992 5.92311C50.9313 6.16567 50.5903 6.31232 50.23 6.34C49.1279 6.52999 48.0837 6.96931 47.1773 7.62443C46.2709 8.27955 45.5262 9.13313 45 10.12C44.2766 11.4013 43.6579 12.739 43.15 14.12C41.73 17.8 40.64 21.6 39.3 25.31C38.67 27 38.64 27 36.74 27C34.47 27 34.63 26.65 34.6 29.15C34.6 29.94 34.84 30.34 35.68 30.3C35.94 30.3 36.33 30.17 36.43 30.51C36.53 30.85 36.19 31 35.99 31.2C34.8043 32.4036 33.3037 33.2492 31.66 33.64C29.76 34.15 27.82 34.55 25.97 35.17C21.22 36.76 16.83 38.98 13.41 42.74C11.4103 45.0754 9.80885 47.7242 8.67 50.58C5 59.22 3.22 68.32 1.84 77.51C1.19 81.82 0.73 86.15 0.38 90.51C0.2 92.65 0 94.82 0 97H33.33C33.3853 96.5599 33.3051 96.1133 33.1 95.72C32.7794 94.9221 32.2586 94.2204 31.5877 93.6827C30.9167 93.1449 30.1185 92.7892 29.27 92.65C28.57 92.49 28.49 92.28 28.92 91.73C29.6214 90.7939 30.159 89.7458 30.51 88.63C32.14 83.82 32.77 78.8 33.56 73.83C34.0063 70.0338 35.1739 66.3579 37 63C38.4244 60.5284 40.3243 58.3634 42.59 56.63C43.42 56 43.45 56 43.59 57.07C43.69 57.78 43.71 58.51 43.76 59.23C44.0601 63.9544 43.9999 68.6948 43.58 73.41C43.2024 77.0649 43.1522 80.7462 43.43 84.41C43.8275 88.6636 44.5869 92.8755 45.7 97H59C58.8264 95.9175 58.328 94.9132 57.5708 94.1203C56.8136 93.3274 55.8334 92.7833 54.76 92.56C53.5066 92.3608 52.2252 92.429 51 92.76C50.4 92.9 50.15 92.76 50.1 92.11C49.6863 86.8159 50.0229 81.4899 51.1 76.29C52.4338 70.287 53.4552 64.2189 54.16 58.11C54.4224 55.643 55.1992 53.2584 56.44 51.11C57.63 48.99 58.67 46.79 59.84 44.66C60.3045 43.8855 60.5841 43.0143 60.657 42.1141C60.7298 41.2139 60.594 40.3091 60.26 39.47C59.99 38.76 59.73 38.04 59.4 37.36C58.4 35.41 57.4 33.48 56.48 31.51C55.99 30.51 56.1 30.39 57.19 30.36C58.82 30.36 58.82 30.36 58.85 28.72C58.85 28.5 58.85 28.28 58.85 28.06C58.85 27.37 58.59 26.99 57.85 27.06C57.35 27.06 56.85 27.06 56.33 27.06C55.64 27.06 55.44 26.77 55.61 26.06C55.9473 24.9058 56.611 23.8737 57.5211 23.0877C58.4312 22.3018 59.549 21.7956 60.74 21.63C62.9557 21.4379 65.1878 21.5829 67.36 22.06C67.6107 22.139 67.8823 22.1161 68.1162 21.9963C68.3502 21.8766 68.5275 21.6695 68.61 21.42C69.01 20.42 69.45 19.42 69.9 18.42C70.002 18.2426 70.0471 18.0381 70.0292 17.8343C70.0113 17.6304 69.9313 17.437 69.8 17.28C66.6 13.22 63.13 9.43 58.4 7C58.1715 6.90163 57.9712 6.7476 57.8175 6.55196C57.6638 6.35633 57.5615 6.12531 57.52 5.88C57.2523 4.45051 56.8264 3.05525 56.25 1.72C55.9795 1.00861 55.4845 0.404782 54.84 0V0Z" fill="black"></path></svg><svg viewBox="0 0 70 59" fill="none" id="logo-pic"><path d="M59.7434 23.8063C58.0235 19.7092 55.2535 16.1318 51.7097 13.4305C48.1658 10.7293 43.9717 8.99857 39.5455 8.41088C35.1192 7.82319 30.6153 8.39905 26.4827 10.0811C22.35 11.7631 18.7329 14.4925 15.9918 17.9973C13.2507 21.5021 11.4814 25.6599 10.8601 30.0564C10.2388 34.4529 10.7873 38.9344 12.4509 43.0545C14.1145 47.1745 16.8351 50.7892 20.3416 53.5382C23.8482 56.2872 28.0181 58.0746 32.4359 58.7223C31.8572 56.6491 31.2685 54.3578 30.7497 51.9275C32.259 52.9009 33.8476 53.747 35.4989 54.457C35.4989 54.457 35.6186 56.5995 35.7782 58.9901C37.5624 59.0207 39.3448 58.8644 41.0961 58.5239C41.0508 58.2746 41.0508 58.0193 41.0961 57.77C41.3854 55.9151 42.1836 52.5723 42.3432 50.4198C43.4939 49.3498 44.47 48.1082 45.2366 46.7397L45.1767 47.1762C44.628 51.4018 43.4806 55.9151 42.7822 57.1649C42.5561 57.5786 42.2778 57.962 41.9541 58.3056C45.5656 57.4633 48.9497 55.8502 51.8717 53.5781C54.7937 51.3059 57.1837 48.4292 58.876 45.1473C60.5683 41.8653 61.5224 38.2568 61.6722 34.5717C61.822 30.8867 61.1638 27.2133 59.7434 23.8063ZM58.2768 27.5657C57.8378 27.9923 56.9299 28.2799 56.7802 26.9904C56.6305 25.7009 56.5906 24.7983 56.5906 24.7983C56.5906 24.7983 54.665 21.3959 53.9467 21.3563C53.2283 21.3166 48.13 24.7983 46.7831 26.3159C45.6157 27.5955 45.3863 27.5062 45.3863 29.7579C45.3863 31.4541 45.6058 37.862 45.486 42.7621L37.3546 44.9146C34.7988 45.6438 32.1997 46.2137 29.5724 46.6207L28.5747 40.8378H28.435L25.8709 27.774C25.8709 27.774 22.0696 26.3457 20.6728 25.9588C20.0169 25.6735 19.2926 25.5808 18.5855 25.6915C17.8783 25.8023 17.2178 26.1118 16.6819 26.5837C16.1352 27.0597 15.698 27.6471 15.4001 28.3061C15.1023 28.9651 14.9507 29.6802 14.9558 30.4027C15.1667 30.8637 15.3273 31.3459 15.4347 31.841C15.4846 32.3171 14.2375 32.2675 13.4393 32.2675C12.6411 32.2675 12.5214 30.8391 13.15 29.1627C13.6403 27.8737 14.2482 26.632 14.9658 25.4529C15.5056 24.3997 16.2018 23.4333 17.0311 22.5862C17.0311 22.5862 17.1708 22.249 18.2782 22.3482C19.3857 22.4474 25.5416 22.7747 25.5416 22.7747L25.5915 20.523C32.2826 19.6045 39.0309 19.1603 45.7853 19.1938C45.7853 19.7989 45.7853 20.404 45.7853 21.0091C48.3438 19.8483 51.0986 19.1754 53.9068 19.0252C54.057 19.0214 54.2059 19.0548 54.34 19.1223C54.474 19.1898 54.5892 19.2894 54.675 19.4121C55.0142 19.8386 57.0795 22.3879 57.319 22.7549C57.9896 23.7078 58.5995 24.7017 59.1448 25.7307C58.9579 26.3822 58.6646 26.9988 58.2768 27.5558V27.5657Z" fill="#FDC305"></path><path d="M56.3312 21.4951C56.8001 22.0903 57.2092 22.616 57.3289 22.7747C57.9996 23.7277 58.6094 24.7215 59.1547 25.7505C58.9649 26.3806 58.6753 26.9767 58.2967 27.5161C57.8577 27.9427 56.9498 28.2303 56.8001 26.9408C56.6505 25.6513 56.5906 24.7983 56.5906 24.7983C56.5906 24.7983 54.665 21.3959 53.9467 21.3563C53.2283 21.3166 48.13 24.7983 46.783 26.3159C45.6157 27.5955 45.3862 27.5062 45.3862 29.7579C45.3862 31.2458 45.5558 36.3542 45.5159 40.8973C47.3218 41.0957 49.9757 41.5916 50.7739 42.7621C50.7739 42.7621 50.4846 35.64 58.5661 39.3697C58.5661 39.3697 58.8455 29.6587 70 32.1485C66.2081 27.7223 61.5597 24.0994 56.3312 21.4951Z" fill="#F06351"></path><path d="M45.8252 19.1938C45.8658 13.6973 45.3982 8.2087 44.4284 2.79724C44.4284 2.79724 44.2788 1.50773 43.5604 2.55918C42.9676 3.81617 42.5642 5.15308 42.3631 6.5269C38.0981 6.25483 33.817 6.36771 29.5724 6.86415C28.7543 4.13635 27.3575 2.89643 26.689 3.22377C26.0205 3.55111 25.9407 6.4773 25.9407 6.4773L25.6115 20.523C32.3091 19.6036 39.0641 19.1594 45.8252 19.1938Z" fill="#F06351"></path><path d="M45.2458 46.7397C45.3755 45.6784 45.4453 44.2698 45.4852 42.7125L37.3542 44.865C34.7996 45.611 32.2006 46.1974 29.5724 46.6207L30.6798 51.5804C30.6798 51.6895 30.6798 51.7986 30.7496 51.9077C32.2589 52.8811 33.8474 53.7272 35.4985 54.4371C37.9116 53.2903 40.2099 51.9186 42.3625 50.3404V50.4C43.5079 49.3352 44.4805 48.1005 45.2458 46.7397Z" fill="#E55645"></path><path d="M31.927 16.0891C31.8771 15.9899 32.9247 16.7636 33.3337 17.0017C33.7428 17.2397 33.9423 17.4183 33.9423 17.5869C33.9423 17.7556 33.6829 17.9242 33.3238 17.9242C32.9646 17.9242 32.4059 17.8051 32.3261 17.6663C32.2463 17.5274 32.9247 17.6663 33.2639 17.6663H33.5532C32.939 17.2195 32.3915 16.6885 31.927 16.0891Z" fill="black"></path><path d="M39.4099 16.1982C39.4099 16.1982 38.4122 17.4679 38.3224 17.5274C38.2326 17.5869 38.1528 17.8647 38.512 17.8151C38.9243 17.7539 39.3312 17.661 39.7291 17.5373C39.8389 17.4778 39.799 17.3389 39.6094 17.3588C39.4199 17.3786 38.931 17.4084 38.6117 17.4679L39.4598 16.2081C39.4598 16.2081 39.4897 16.0891 39.4099 16.1982Z" fill="black"></path><path d="M36.277 22.2589C36.7395 22.0563 37.1217 21.7077 37.3645 21.267C37.6438 20.6123 37.3645 20.3643 36.9255 20.275C36.3216 20.1655 35.6983 20.2859 35.1796 20.6123C34.7905 20.9793 34.8404 21.3364 35.1796 21.6042C35.5166 21.867 35.8852 22.0869 36.277 22.2589Z" fill="black"></path><path d="M35.9177 23.5087C35.8031 23.7337 35.6475 23.9355 35.4587 24.1039C35.1746 24.3312 34.8253 24.4631 34.4611 24.4808C33.9118 24.5344 33.3626 24.3784 32.9247 24.0444C32.7236 23.9274 32.5446 23.7764 32.3959 23.598C32.2961 23.49 32.1734 23.4053 32.0367 23.35C32.0367 23.35 32.785 27.4269 34.6008 28.0815C36.4165 28.7362 36.7557 27.3277 36.8056 26.9507C36.8664 25.8218 36.5811 24.7011 35.9875 23.7369C35.9875 23.4393 35.9676 23.6377 35.9177 23.5087Z" fill="#F06351"></path><path d="M34.2216 24.6395C33.7547 24.5728 33.3063 24.4127 32.9033 24.1689C32.5004 23.9251 32.1513 23.6027 31.8771 23.2211C31.8526 23.1938 31.839 23.1585 31.839 23.1219C31.839 23.0853 31.8526 23.05 31.8771 23.0227C31.8901 23.0095 31.9056 22.999 31.9228 22.9919C31.9399 22.9847 31.9583 22.981 31.9769 22.981C31.9954 22.981 32.0138 22.9847 32.031 22.9919C32.0481 22.999 32.0636 23.0095 32.0766 23.0227C32.3235 23.3671 32.6367 23.6593 32.9981 23.8823C33.3595 24.1054 33.7618 24.2549 34.1817 24.3221C34.5139 24.2973 34.8355 24.1945 35.1199 24.022C35.4044 23.8496 35.6436 23.6125 35.8179 23.3302L35.9576 23.1417L36.0573 23.36C36.0573 23.36 36.4364 24.1138 37.055 24.1535C37.6736 24.1932 38.1125 23.7369 38.6812 22.8739C38.7024 22.8423 38.7353 22.8204 38.7727 22.813C38.8101 22.8055 38.849 22.8132 38.8807 22.8342C38.9125 22.8553 38.9345 22.888 38.942 22.9252C38.9495 22.9624 38.9418 23.001 38.9206 23.0326C38.2555 24.0047 37.627 24.4709 37.035 24.4312C36.8063 24.4011 36.5871 24.3204 36.3938 24.1951C36.2004 24.0698 36.0378 23.9031 35.9177 23.7071C35.7225 23.9781 35.4689 24.2025 35.1755 24.3638C34.8821 24.5251 34.5563 24.6193 34.2216 24.6395Z" fill="black"></path><path d="M36.1771 37.9909C38.2433 37.9909 39.9183 36.3255 39.9183 34.2712C39.9183 32.2168 38.2433 30.5514 36.1771 30.5514C34.1108 30.5514 32.4358 32.2168 32.4358 34.2712C32.4358 36.3255 34.1108 37.9909 36.1771 37.9909Z" fill="#FDC305"></path><path d="M41.1355 31.2458L38.0128 32.5452L39.1601 26.9607L31.6776 36.6419L34.8003 35.3425L33.653 40.937L41.1355 31.2458ZM33.7627 35.0449L37.913 29.6786L37.1049 33.6463L39.1003 32.8329L34.92 38.2092L35.7282 34.2414L33.7627 35.0449Z" fill="#111111"></path><path d="M32.3659 33.5868C32.983 33.5868 33.4833 33.0894 33.4833 32.4758C33.4833 31.8622 32.983 31.3648 32.3659 31.3648C31.7488 31.3648 31.2485 31.8622 31.2485 32.4758C31.2485 33.0894 31.7488 33.5868 32.3659 33.5868Z" fill="#111111"></path><path d="M38.871 37.614C39.3063 37.614 39.6592 37.2631 39.6592 36.8304C39.6592 36.3976 39.3063 36.0467 38.871 36.0467C38.4358 36.0467 38.0829 36.3976 38.0829 36.8304C38.0829 37.2631 38.4358 37.614 38.871 37.614Z" fill="#111111"></path><path d="M39.8288 35.4615C40.0216 35.4615 40.178 35.3061 40.178 35.1143C40.178 34.9226 40.0216 34.7672 39.8288 34.7672C39.6359 34.7672 39.4796 34.9226 39.4796 35.1143C39.4796 35.3061 39.6359 35.4615 39.8288 35.4615Z" fill="#111111"></path><path d="M45.7753 20.9892C43.9742 22.6034 42.278 24.3295 40.6969 26.1572C39.1219 27.9717 37.3445 29.6023 35.399 31.0177C35.1795 30.4919 33.7727 29.5099 33.7727 29.5099C33.7727 29.5099 30.6399 27.3773 28.5846 25.7009C27.4735 24.7809 26.4268 23.7867 25.4517 22.7251L23.4563 22.616C26.3368 26.7991 30.5566 29.8897 35.4289 31.3847C36.287 31.2458 38.7014 29.5298 40.5073 28.1311C42.6438 26.3247 44.6446 24.3654 46.4936 22.2688C46.9906 21.6816 47.376 21.0094 47.631 20.285C46.4936 20.6619 45.7753 20.9892 45.7753 20.9892Z" fill="#F06351"></path><path d="M65.0708 3.47176L56.6305 12.8356L55.4133 10.8616L63.5443 0L65.0708 3.47176Z" fill="#FDC305"></path><path d="M62.507 17.1207L68.0341 13.0439L67.2559 9.33406L61.8685 14.1052L62.507 17.1207Z" fill="#FDC305"></path><path d="M59.7833 48.9716L65.899 52.1259L68.902 49.8048L62.2276 47.077L59.7833 48.9716Z" fill="#FDC305"></path><path d="M1.94543 5.92182L5.00828 2.58894L14.2766 11.5163L13.0595 13.7779L1.94543 5.92182Z" fill="#FDC305"></path><path d="M7.36287 16.1486L2.67383 13.0439L0.279419 16.8827L5.41742 19.2633L7.36287 16.1486Z" fill="#FDC305"></path><path d="M13.878 52.1259L9.33862 55.4489L12.1321 59L16.1427 55.0124L13.878 52.1259Z" fill="#FDC305"></path><path d="M25.8708 27.774C25.8708 27.774 22.0695 26.3457 20.6727 25.9588C20.0169 25.6735 19.2926 25.5808 18.5855 25.6915C17.8783 25.8023 17.2178 26.1118 16.6819 26.5837C16.1351 27.0597 15.6979 27.6471 15.4001 28.3061C15.1022 28.9651 14.9507 29.6802 14.9558 30.4027C15.1667 30.8637 15.3273 31.3459 15.4347 31.841C15.4846 32.3171 14.2374 32.2675 13.4393 32.2675C12.6411 32.2675 12.5214 30.8391 13.1499 29.1627C13.6403 27.8737 14.2481 26.632 14.9658 25.4529C9.52821 28.27 0 34.7771 0 34.7771C2.72546 34.6137 5.46016 34.6933 8.17132 35.0151C13.4093 35.5409 13.1599 39.6474 13.1599 39.6474C15.0022 39.1425 16.8798 38.7745 18.7771 38.5464C20.8922 38.4075 21.0419 40.6493 21.0419 40.6493L21.5707 44.4781C22.3736 43.6145 23.2591 42.8305 24.2146 42.1372C25.4463 41.157 27.0145 40.6942 28.5846 40.8477L25.8708 27.774Z" fill="#F06351"></path></svg><svg viewBox="0 0 118 21" fill="none" id="logo-text"><path d="M1.42351 19.2159C0.391283 17.7277 -0.102273 15.9474 0.0207226 14.156V6.84405C-0.109487 5.03944 0.376607 3.24353 1.40346 1.73542C2.33197 0.572011 3.91845 -0.00644536 6.16291 5.41628e-05C8.40736 0.00655368 9.92704 0.516766 10.722 1.53069C11.6912 2.78717 12.1642 4.3407 12.0546 5.90812V7.62399H7.90636V5.76188C7.90077 5.27192 7.85723 4.78307 7.77611 4.29949C7.72595 3.9494 7.56075 3.6245 7.30517 3.3733C7.1474 3.24166 6.96423 3.14195 6.76637 3.08001C6.56852 3.01807 6.35995 2.99515 6.15288 3.01258C5.8555 2.9694 5.55167 3.01643 5.28273 3.14726C5.0138 3.2781 4.79283 3.48638 4.6499 3.74378C4.38644 4.42844 4.27049 5.15851 4.30923 5.88862V15.1699C4.26352 15.9049 4.39743 16.6399 4.7 17.3148C4.84457 17.5582 5.05909 17.7553 5.31721 17.8817C5.57533 18.0082 5.86578 18.0585 6.15288 18.0265C6.435 18.0653 6.72251 18.0164 6.97441 17.8869C7.22631 17.7573 7.42973 17.5537 7.55567 17.305C7.79804 16.6191 7.90347 15.8944 7.86628 15.1699V13.2201H12.0145V14.9067C12.1366 16.4972 11.7023 18.0812 10.7821 19.4011C9.90032 20.4735 8.3773 21 6.21301 21C4.04871 21 2.35536 20.415 1.42351 19.2159Z" fill="#111111"></path><path d="M17.7065 0.282784H22.4559L26.4638 20.7563H22.516L21.8046 16.2326H18.478L17.6764 20.727H13.6685L17.7065 0.282784ZM21.3637 13.6588L20.1012 5.4304L18.8487 13.6588H21.3637Z" fill="#111111"></path><path d="M29.5405 3.36356H26.2941V0.282784H37.0354V3.36356H33.829V20.727H29.5305L29.5405 3.36356Z" fill="#111111"></path><path d="M45.4631 0.282784H53.6093V2.40813H48.399V9.16438H52.6273V11.1825H48.399V18.6797H53.6594V20.727H45.4631V0.282784Z" fill="#444444"></path><path d="M56.0247 0.282784H58.0286L64.0406 13.8635V0.282784H66.4854V20.7563H64.6117L58.5998 6.7953V20.727H56.1148L56.0247 0.282784Z" fill="#444444"></path><path d="M69.7224 0.282784H77.8585V2.40813H72.6482V9.16438H76.9167V11.1825H72.6883V18.6797H77.9187V20.727H69.7224V0.282784Z" fill="#444444"></path><path d="M80.2739 0.282779H84.5023C86.1687 0.152311 87.8281 0.605237 89.1816 1.55993C90.1836 2.40812 90.6745 3.79252 90.6745 5.71313C90.6745 8.31293 89.8095 9.90207 88.0794 10.4805L91.0854 20.727H88.2397L85.4843 11.1337H83.2097V20.727H80.2739V0.282779ZM84.2819 9.05713C85.2472 9.148 86.2124 8.88364 86.9872 8.31618C87.3021 7.95359 87.5375 7.53216 87.6788 7.0778C87.8201 6.62344 87.8643 6.14576 87.8089 5.67413C87.829 5.0127 87.7307 4.3529 87.5183 3.72427C87.4321 3.49248 87.2991 3.27987 87.127 3.09901C86.9549 2.91815 86.7472 2.77273 86.5163 2.67135C85.8658 2.41169 85.1644 2.29517 84.4622 2.33013H83.1697V9.09613L84.2819 9.05713Z" fill="#444444"></path><path d="M94.623 19.2159C93.6653 17.643 93.2215 15.8239 93.3505 14V7.17552C93.316 5.85855 93.4848 4.54399 93.8515 3.27581C94.1409 2.32238 94.7559 1.49354 95.595 0.926233C96.6079 0.332253 97.7805 0.0470228 98.9616 0.107293C99.7256 0.0365995 100.496 0.129098 101.22 0.378323C101.943 0.627548 102.602 1.02749 103.15 1.55019C104.111 2.86053 104.566 4.45937 104.432 6.0641V6.82455H101.677V6.19084C101.696 5.4329 101.635 4.67506 101.497 3.92901C101.405 3.45088 101.134 3.02319 100.735 2.72985C100.215 2.43117 99.6144 2.29188 99.0117 2.33013C98.3572 2.27565 97.7067 2.47149 97.1981 2.87609C96.7826 3.25974 96.511 3.76769 96.4266 4.31898C96.2997 5.12206 96.2427 5.93414 96.2563 6.74655V14.3412C96.1767 15.4953 96.3793 16.6513 96.8474 17.7145C97.1193 18.0415 97.4644 18.3036 97.8564 18.4809C98.2484 18.6582 98.6768 18.746 99.109 18.7375C99.5411 18.7291 99.9656 18.6246 100.35 18.4321C100.734 18.2396 101.068 17.9641 101.326 17.6267C101.809 16.5023 102.018 15.2844 101.938 14.0683V12.6254H99.2722V10.6073H104.583V20.727H102.769L102.479 18.3774C102.249 19.158 101.755 19.8401 101.076 20.3127C100.398 20.7853 99.5747 21.0207 98.7412 20.9805C97.9576 21.0477 97.1692 20.9212 96.4492 20.6127C95.7293 20.3042 95.1011 19.8237 94.623 19.2159Z" fill="#444444"></path><path d="M110.675 13.5126L106.136 0.282784H108.862L112.078 10.1491L115.245 0.282784H118L113.491 13.5126V20.727H110.685L110.675 13.5126Z" fill="#444444"></path></svg></svg>